<mxfile host="app.diagrams.net" modified="2021-10-08T09:30:49.751Z" agent="5.0 (Windows NT 10.0; Win64; x64) AppleWebKit/537.36 (KHTML, like Gecko) Chrome/94.0.4606.61 Safari/537.36 OPR/80.0.4170.16 (Edition Campaign 34)" etag="cL29TaZ4AXPIYc6iwuWP" version="15.4.3" type="github">
  <diagram id="QZqCb5be6UDYk8QQtXpI" name="Page-1">
    <mxGraphModel dx="828" dy="483" grid="1" gridSize="10" guides="1" tooltips="1" connect="1" arrows="1" fold="1" page="1" pageScale="1" pageWidth="827" pageHeight="1169" background="#114B5F" math="0" shadow="0">
      <root>
        <mxCell id="0" />
        <mxCell id="1" parent="0" />
        <mxCell id="m7mVW3YWxIbqjOFGqsb5-6" style="rounded=1;sketch=0;orthogonalLoop=1;jettySize=auto;html=1;exitX=0;exitY=0;exitDx=0;exitDy=0;entryX=1;entryY=1;entryDx=0;entryDy=0;fontColor=#E4FDE1;strokeColor=#028090;fillColor=#F45B69;" edge="1" parent="1" source="m7mVW3YWxIbqjOFGqsb5-1" target="m7mVW3YWxIbqjOFGqsb5-2">
          <mxGeometry relative="1" as="geometry" />
        </mxCell>
        <mxCell id="m7mVW3YWxIbqjOFGqsb5-7" style="edgeStyle=none;rounded=1;sketch=0;orthogonalLoop=1;jettySize=auto;html=1;exitX=0.5;exitY=0;exitDx=0;exitDy=0;entryX=0.5;entryY=1;entryDx=0;entryDy=0;fontColor=#E4FDE1;strokeColor=#028090;fillColor=#F45B69;" edge="1" parent="1" source="m7mVW3YWxIbqjOFGqsb5-1" target="m7mVW3YWxIbqjOFGqsb5-4">
          <mxGeometry relative="1" as="geometry" />
        </mxCell>
        <mxCell id="m7mVW3YWxIbqjOFGqsb5-8" style="edgeStyle=none;rounded=1;sketch=0;orthogonalLoop=1;jettySize=auto;html=1;exitX=0;exitY=0.5;exitDx=0;exitDy=0;entryX=1;entryY=0.5;entryDx=0;entryDy=0;fontColor=#E4FDE1;strokeColor=#028090;fillColor=#F45B69;" edge="1" parent="1" source="m7mVW3YWxIbqjOFGqsb5-1" target="m7mVW3YWxIbqjOFGqsb5-5">
          <mxGeometry relative="1" as="geometry" />
        </mxCell>
        <mxCell id="m7mVW3YWxIbqjOFGqsb5-1" value="company" style="whiteSpace=wrap;html=1;align=center;rounded=0;sketch=0;fontColor=#E4FDE1;strokeColor=#028090;fillColor=#F45B69;" vertex="1" parent="1">
          <mxGeometry x="159" y="380" width="100" height="40" as="geometry" />
        </mxCell>
        <mxCell id="m7mVW3YWxIbqjOFGqsb5-2" value="company_ID" style="ellipse;whiteSpace=wrap;html=1;align=center;fontStyle=4;rounded=0;sketch=0;fontColor=#E4FDE1;strokeColor=#028090;fillColor=#F45B69;" vertex="1" parent="1">
          <mxGeometry x="49" y="320" width="100" height="40" as="geometry" />
        </mxCell>
        <mxCell id="m7mVW3YWxIbqjOFGqsb5-29" style="edgeStyle=none;rounded=1;sketch=0;orthogonalLoop=1;jettySize=auto;html=1;exitX=0.5;exitY=0;exitDx=0;exitDy=0;entryX=0.5;entryY=1;entryDx=0;entryDy=0;fontColor=#E4FDE1;strokeColor=#028090;fillColor=#F45B69;" edge="1" parent="1" source="m7mVW3YWxIbqjOFGqsb5-4" target="m7mVW3YWxIbqjOFGqsb5-27">
          <mxGeometry relative="1" as="geometry" />
        </mxCell>
        <mxCell id="m7mVW3YWxIbqjOFGqsb5-30" style="edgeStyle=none;rounded=1;sketch=0;orthogonalLoop=1;jettySize=auto;html=1;exitX=1;exitY=0;exitDx=0;exitDy=0;entryX=0.32;entryY=1;entryDx=0;entryDy=0;entryPerimeter=0;fontColor=#E4FDE1;strokeColor=#028090;fillColor=#F45B69;" edge="1" parent="1" source="m7mVW3YWxIbqjOFGqsb5-4" target="m7mVW3YWxIbqjOFGqsb5-28">
          <mxGeometry relative="1" as="geometry" />
        </mxCell>
        <mxCell id="m7mVW3YWxIbqjOFGqsb5-4" value="address" style="ellipse;whiteSpace=wrap;html=1;align=center;rounded=0;sketch=0;fontColor=#E4FDE1;strokeColor=#028090;fillColor=#F45B69;" vertex="1" parent="1">
          <mxGeometry x="169" y="310" width="100" height="40" as="geometry" />
        </mxCell>
        <mxCell id="m7mVW3YWxIbqjOFGqsb5-5" value="name" style="ellipse;whiteSpace=wrap;html=1;align=center;rounded=0;sketch=0;fontColor=#E4FDE1;strokeColor=#028090;fillColor=#F45B69;" vertex="1" parent="1">
          <mxGeometry x="19" y="380" width="100" height="40" as="geometry" />
        </mxCell>
        <mxCell id="m7mVW3YWxIbqjOFGqsb5-11" value="has" style="rhombus;whiteSpace=wrap;html=1;rounded=0;fontColor=#E4FDE1;strokeColor=#028090;fillColor=#F45B69;sketch=0;" vertex="1" parent="1">
          <mxGeometry x="373.5" y="340" width="80" height="80" as="geometry" />
        </mxCell>
        <mxCell id="m7mVW3YWxIbqjOFGqsb5-48" style="edgeStyle=none;rounded=1;sketch=0;orthogonalLoop=1;jettySize=auto;html=1;exitX=0.75;exitY=0;exitDx=0;exitDy=0;entryX=0;entryY=1;entryDx=0;entryDy=0;fontColor=#E4FDE1;strokeColor=#028090;fillColor=#F45B69;" edge="1" parent="1" source="m7mVW3YWxIbqjOFGqsb5-14" target="m7mVW3YWxIbqjOFGqsb5-45">
          <mxGeometry relative="1" as="geometry" />
        </mxCell>
        <mxCell id="m7mVW3YWxIbqjOFGqsb5-54" style="edgeStyle=none;rounded=1;sketch=0;orthogonalLoop=1;jettySize=auto;html=1;exitX=1;exitY=0.25;exitDx=0;exitDy=0;entryX=0;entryY=0.5;entryDx=0;entryDy=0;fontColor=#E4FDE1;strokeColor=#028090;fillColor=#F45B69;" edge="1" parent="1" source="m7mVW3YWxIbqjOFGqsb5-14" target="m7mVW3YWxIbqjOFGqsb5-53">
          <mxGeometry relative="1" as="geometry" />
        </mxCell>
        <mxCell id="m7mVW3YWxIbqjOFGqsb5-56" style="edgeStyle=none;rounded=1;sketch=0;orthogonalLoop=1;jettySize=auto;html=1;exitX=1;exitY=0.5;exitDx=0;exitDy=0;entryX=0;entryY=0.5;entryDx=0;entryDy=0;fontColor=#E4FDE1;strokeColor=#028090;fillColor=#F45B69;" edge="1" parent="1" source="m7mVW3YWxIbqjOFGqsb5-14" target="m7mVW3YWxIbqjOFGqsb5-55">
          <mxGeometry relative="1" as="geometry" />
        </mxCell>
        <mxCell id="m7mVW3YWxIbqjOFGqsb5-58" style="edgeStyle=none;rounded=1;sketch=0;orthogonalLoop=1;jettySize=auto;html=1;exitX=1;exitY=0.75;exitDx=0;exitDy=0;fontColor=#E4FDE1;strokeColor=#028090;fillColor=#F45B69;" edge="1" parent="1" source="m7mVW3YWxIbqjOFGqsb5-14" target="m7mVW3YWxIbqjOFGqsb5-57">
          <mxGeometry relative="1" as="geometry" />
        </mxCell>
        <mxCell id="m7mVW3YWxIbqjOFGqsb5-62" style="edgeStyle=none;rounded=1;sketch=0;orthogonalLoop=1;jettySize=auto;html=1;exitX=1;exitY=1;exitDx=0;exitDy=0;fontColor=#E4FDE1;strokeColor=#028090;fillColor=#F45B69;" edge="1" parent="1" source="m7mVW3YWxIbqjOFGqsb5-14" target="m7mVW3YWxIbqjOFGqsb5-61">
          <mxGeometry relative="1" as="geometry" />
        </mxCell>
        <mxCell id="m7mVW3YWxIbqjOFGqsb5-64" style="edgeStyle=none;rounded=1;sketch=0;orthogonalLoop=1;jettySize=auto;html=1;exitX=0.75;exitY=1;exitDx=0;exitDy=0;entryX=0;entryY=0;entryDx=0;entryDy=0;fontColor=#E4FDE1;strokeColor=#028090;fillColor=#F45B69;" edge="1" parent="1" source="m7mVW3YWxIbqjOFGqsb5-14" target="m7mVW3YWxIbqjOFGqsb5-63">
          <mxGeometry relative="1" as="geometry" />
        </mxCell>
        <mxCell id="m7mVW3YWxIbqjOFGqsb5-14" value="employee" style="whiteSpace=wrap;html=1;align=center;rounded=0;sketch=0;fontColor=#E4FDE1;strokeColor=#028090;fillColor=#F45B69;" vertex="1" parent="1">
          <mxGeometry x="559" y="380" width="100" height="40" as="geometry" />
        </mxCell>
        <mxCell id="m7mVW3YWxIbqjOFGqsb5-31" style="edgeStyle=none;rounded=1;sketch=0;orthogonalLoop=1;jettySize=auto;html=1;exitX=0.25;exitY=1;exitDx=0;exitDy=0;entryX=0.5;entryY=0;entryDx=0;entryDy=0;fontColor=#E4FDE1;strokeColor=#028090;fillColor=#F45B69;" edge="1" parent="1" source="m7mVW3YWxIbqjOFGqsb5-15" target="m7mVW3YWxIbqjOFGqsb5-25">
          <mxGeometry relative="1" as="geometry" />
        </mxCell>
        <mxCell id="m7mVW3YWxIbqjOFGqsb5-32" style="edgeStyle=none;rounded=1;sketch=0;orthogonalLoop=1;jettySize=auto;html=1;exitX=1;exitY=0.5;exitDx=0;exitDy=0;entryX=0;entryY=0.5;entryDx=0;entryDy=0;fontColor=#E4FDE1;strokeColor=#028090;fillColor=#F45B69;" edge="1" parent="1" source="m7mVW3YWxIbqjOFGqsb5-15" target="m7mVW3YWxIbqjOFGqsb5-26">
          <mxGeometry relative="1" as="geometry" />
        </mxCell>
        <mxCell id="m7mVW3YWxIbqjOFGqsb5-35" style="edgeStyle=none;rounded=1;sketch=0;orthogonalLoop=1;jettySize=auto;html=1;exitX=0.75;exitY=1;exitDx=0;exitDy=0;fontColor=#E4FDE1;strokeColor=#028090;fillColor=#F45B69;" edge="1" parent="1" source="m7mVW3YWxIbqjOFGqsb5-15" target="m7mVW3YWxIbqjOFGqsb5-34">
          <mxGeometry relative="1" as="geometry" />
        </mxCell>
        <mxCell id="m7mVW3YWxIbqjOFGqsb5-15" value="depatment" style="whiteSpace=wrap;html=1;align=center;rounded=0;sketch=0;fontColor=#E4FDE1;strokeColor=#028090;fillColor=#F45B69;" vertex="1" parent="1">
          <mxGeometry x="559" y="620" width="100" height="40" as="geometry" />
        </mxCell>
        <mxCell id="m7mVW3YWxIbqjOFGqsb5-43" style="edgeStyle=none;rounded=1;sketch=0;orthogonalLoop=1;jettySize=auto;html=1;exitX=0;exitY=0.5;exitDx=0;exitDy=0;fontColor=#E4FDE1;strokeColor=#028090;fillColor=#F45B69;" edge="1" parent="1" source="m7mVW3YWxIbqjOFGqsb5-16" target="m7mVW3YWxIbqjOFGqsb5-42">
          <mxGeometry relative="1" as="geometry" />
        </mxCell>
        <mxCell id="m7mVW3YWxIbqjOFGqsb5-44" style="edgeStyle=none;rounded=1;sketch=0;orthogonalLoop=1;jettySize=auto;html=1;exitX=0.25;exitY=1;exitDx=0;exitDy=0;fontColor=#E4FDE1;strokeColor=#028090;fillColor=#F45B69;" edge="1" parent="1" source="m7mVW3YWxIbqjOFGqsb5-16" target="m7mVW3YWxIbqjOFGqsb5-41">
          <mxGeometry relative="1" as="geometry" />
        </mxCell>
        <mxCell id="m7mVW3YWxIbqjOFGqsb5-16" value="project" style="whiteSpace=wrap;html=1;align=center;rounded=0;sketch=0;fontColor=#E4FDE1;strokeColor=#028090;fillColor=#F45B69;" vertex="1" parent="1">
          <mxGeometry x="159" y="620" width="100" height="40" as="geometry" />
        </mxCell>
        <mxCell id="m7mVW3YWxIbqjOFGqsb5-17" value="has" style="rhombus;whiteSpace=wrap;html=1;rounded=0;fontColor=#E4FDE1;strokeColor=#028090;fillColor=#F45B69;sketch=0;" vertex="1" parent="1">
          <mxGeometry x="169" y="480" width="80" height="80" as="geometry" />
        </mxCell>
        <mxCell id="m7mVW3YWxIbqjOFGqsb5-18" value="controls" style="rhombus;whiteSpace=wrap;html=1;rounded=0;fontColor=#E4FDE1;strokeColor=#028090;fillColor=#F45B69;sketch=0;" vertex="1" parent="1">
          <mxGeometry x="360" y="650" width="80" height="80" as="geometry" />
        </mxCell>
        <mxCell id="m7mVW3YWxIbqjOFGqsb5-19" value="work for" style="rhombus;whiteSpace=wrap;html=1;rounded=0;fontColor=#E4FDE1;strokeColor=#028090;fillColor=#F45B69;sketch=0;" vertex="1" parent="1">
          <mxGeometry x="620" y="460" width="80" height="80" as="geometry" />
        </mxCell>
        <mxCell id="m7mVW3YWxIbqjOFGqsb5-20" value="manage" style="rhombus;whiteSpace=wrap;html=1;rounded=0;fontColor=#E4FDE1;strokeColor=#028090;fillColor=#F45B69;sketch=0;" vertex="1" parent="1">
          <mxGeometry x="520" y="500" width="80" height="80" as="geometry" />
        </mxCell>
        <mxCell id="m7mVW3YWxIbqjOFGqsb5-38" style="edgeStyle=none;rounded=1;sketch=0;orthogonalLoop=1;jettySize=auto;html=1;exitX=0;exitY=0.5;exitDx=0;exitDy=0;entryX=1;entryY=0.5;entryDx=0;entryDy=0;fontColor=#E4FDE1;strokeColor=#028090;fillColor=#F45B69;" edge="1" parent="1" source="m7mVW3YWxIbqjOFGqsb5-21" target="m7mVW3YWxIbqjOFGqsb5-36">
          <mxGeometry relative="1" as="geometry" />
        </mxCell>
        <mxCell id="m7mVW3YWxIbqjOFGqsb5-39" style="edgeStyle=none;rounded=1;sketch=0;orthogonalLoop=1;jettySize=auto;html=1;exitX=0;exitY=0.75;exitDx=0;exitDy=0;entryX=1;entryY=0;entryDx=0;entryDy=0;fontColor=#E4FDE1;strokeColor=#028090;fillColor=#F45B69;" edge="1" parent="1" source="m7mVW3YWxIbqjOFGqsb5-21" target="m7mVW3YWxIbqjOFGqsb5-37">
          <mxGeometry relative="1" as="geometry" />
        </mxCell>
        <mxCell id="m7mVW3YWxIbqjOFGqsb5-21" value="client" style="whiteSpace=wrap;html=1;align=center;rounded=0;sketch=0;fontColor=#E4FDE1;strokeColor=#028090;fillColor=#F45B69;" vertex="1" parent="1">
          <mxGeometry x="559" y="180" width="100" height="40" as="geometry" />
        </mxCell>
        <mxCell id="m7mVW3YWxIbqjOFGqsb5-22" value="work with" style="rhombus;whiteSpace=wrap;html=1;rounded=0;fontColor=#E4FDE1;strokeColor=#028090;fillColor=#F45B69;sketch=0;" vertex="1" parent="1">
          <mxGeometry x="530" y="260" width="80" height="80" as="geometry" />
        </mxCell>
        <mxCell id="m7mVW3YWxIbqjOFGqsb5-23" value="work on" style="rhombus;whiteSpace=wrap;html=1;rounded=0;fontColor=#E4FDE1;strokeColor=#028090;fillColor=#F45B69;sketch=0;" vertex="1" parent="1">
          <mxGeometry x="419" y="450" width="80" height="80" as="geometry" />
        </mxCell>
        <mxCell id="m7mVW3YWxIbqjOFGqsb5-24" value="has" style="rhombus;whiteSpace=wrap;html=1;rounded=0;fontColor=#E4FDE1;strokeColor=#028090;fillColor=#F45B69;sketch=0;" vertex="1" parent="1">
          <mxGeometry x="289" y="450" width="80" height="80" as="geometry" />
        </mxCell>
        <mxCell id="m7mVW3YWxIbqjOFGqsb5-25" value="name" style="ellipse;whiteSpace=wrap;html=1;align=center;rounded=0;sketch=0;fontColor=#E4FDE1;strokeColor=#028090;fillColor=#F45B69;" vertex="1" parent="1">
          <mxGeometry x="529" y="690" width="100" height="40" as="geometry" />
        </mxCell>
        <mxCell id="m7mVW3YWxIbqjOFGqsb5-26" value="dept_ID" style="ellipse;whiteSpace=wrap;html=1;align=center;fontStyle=4;rounded=0;sketch=0;fontColor=#E4FDE1;strokeColor=#028090;fillColor=#F45B69;" vertex="1" parent="1">
          <mxGeometry x="709" y="620" width="100" height="40" as="geometry" />
        </mxCell>
        <mxCell id="m7mVW3YWxIbqjOFGqsb5-27" value="street" style="ellipse;whiteSpace=wrap;html=1;align=center;rounded=0;sketch=0;fontColor=#E4FDE1;strokeColor=#028090;fillColor=#F45B69;" vertex="1" parent="1">
          <mxGeometry x="129" y="240" width="100" height="40" as="geometry" />
        </mxCell>
        <mxCell id="m7mVW3YWxIbqjOFGqsb5-28" value="city" style="ellipse;whiteSpace=wrap;html=1;align=center;rounded=0;sketch=0;fontColor=#E4FDE1;strokeColor=#028090;fillColor=#F45B69;" vertex="1" parent="1">
          <mxGeometry x="269" y="260" width="100" height="40" as="geometry" />
        </mxCell>
        <mxCell id="m7mVW3YWxIbqjOFGqsb5-34" value="location" style="ellipse;shape=doubleEllipse;margin=3;whiteSpace=wrap;html=1;align=center;rounded=0;sketch=0;fontColor=#E4FDE1;strokeColor=#028090;fillColor=#F45B69;" vertex="1" parent="1">
          <mxGeometry x="669" y="690" width="100" height="40" as="geometry" />
        </mxCell>
        <mxCell id="m7mVW3YWxIbqjOFGqsb5-36" value="name" style="ellipse;whiteSpace=wrap;html=1;align=center;rounded=0;sketch=0;fontColor=#E4FDE1;strokeColor=#028090;fillColor=#F45B69;" vertex="1" parent="1">
          <mxGeometry x="409" y="150" width="100" height="40" as="geometry" />
        </mxCell>
        <mxCell id="m7mVW3YWxIbqjOFGqsb5-37" value="client_ID" style="ellipse;whiteSpace=wrap;html=1;align=center;fontStyle=4;rounded=0;sketch=0;fontColor=#E4FDE1;strokeColor=#028090;fillColor=#F45B69;" vertex="1" parent="1">
          <mxGeometry x="429" y="220" width="100" height="40" as="geometry" />
        </mxCell>
        <mxCell id="m7mVW3YWxIbqjOFGqsb5-41" value="project_ID" style="ellipse;whiteSpace=wrap;html=1;align=center;fontStyle=4;rounded=0;sketch=0;fontColor=#E4FDE1;strokeColor=#028090;fillColor=#F45B69;" vertex="1" parent="1">
          <mxGeometry x="80" y="700" width="100" height="40" as="geometry" />
        </mxCell>
        <mxCell id="m7mVW3YWxIbqjOFGqsb5-42" value="name" style="ellipse;whiteSpace=wrap;html=1;align=center;fontStyle=4;rounded=0;sketch=0;fontColor=#E4FDE1;strokeColor=#028090;fillColor=#F45B69;" vertex="1" parent="1">
          <mxGeometry x="10" y="620" width="100" height="40" as="geometry" />
        </mxCell>
        <mxCell id="m7mVW3YWxIbqjOFGqsb5-50" style="edgeStyle=none;rounded=1;sketch=0;orthogonalLoop=1;jettySize=auto;html=1;exitX=0.5;exitY=0;exitDx=0;exitDy=0;entryX=0.5;entryY=1;entryDx=0;entryDy=0;fontColor=#E4FDE1;strokeColor=#028090;fillColor=#F45B69;" edge="1" parent="1" source="m7mVW3YWxIbqjOFGqsb5-45" target="m7mVW3YWxIbqjOFGqsb5-49">
          <mxGeometry relative="1" as="geometry" />
        </mxCell>
        <mxCell id="m7mVW3YWxIbqjOFGqsb5-52" style="edgeStyle=none;rounded=1;sketch=0;orthogonalLoop=1;jettySize=auto;html=1;exitX=1;exitY=0;exitDx=0;exitDy=0;entryX=0;entryY=0.5;entryDx=0;entryDy=0;fontColor=#E4FDE1;strokeColor=#028090;fillColor=#F45B69;" edge="1" parent="1" source="m7mVW3YWxIbqjOFGqsb5-45" target="m7mVW3YWxIbqjOFGqsb5-46">
          <mxGeometry relative="1" as="geometry" />
        </mxCell>
        <mxCell id="m7mVW3YWxIbqjOFGqsb5-45" value="name" style="ellipse;whiteSpace=wrap;html=1;align=center;rounded=0;sketch=0;fontColor=#E4FDE1;strokeColor=#028090;fillColor=#F45B69;" vertex="1" parent="1">
          <mxGeometry x="640" y="310" width="100" height="40" as="geometry" />
        </mxCell>
        <mxCell id="m7mVW3YWxIbqjOFGqsb5-46" value="lastname" style="ellipse;whiteSpace=wrap;html=1;align=center;rounded=0;sketch=0;fontColor=#E4FDE1;strokeColor=#028090;fillColor=#F45B69;" vertex="1" parent="1">
          <mxGeometry x="760" y="260" width="100" height="40" as="geometry" />
        </mxCell>
        <mxCell id="m7mVW3YWxIbqjOFGqsb5-49" value="firstname" style="ellipse;whiteSpace=wrap;html=1;align=center;rounded=0;sketch=0;fontColor=#E4FDE1;strokeColor=#028090;fillColor=#F45B69;" vertex="1" parent="1">
          <mxGeometry x="640" y="240" width="100" height="40" as="geometry" />
        </mxCell>
        <mxCell id="m7mVW3YWxIbqjOFGqsb5-53" value="birthdate" style="ellipse;whiteSpace=wrap;html=1;align=center;rounded=0;sketch=0;fontColor=#E4FDE1;strokeColor=#028090;fillColor=#F45B69;" vertex="1" parent="1">
          <mxGeometry x="780" y="310" width="100" height="40" as="geometry" />
        </mxCell>
        <mxCell id="m7mVW3YWxIbqjOFGqsb5-55" value="age" style="ellipse;whiteSpace=wrap;html=1;align=center;dashed=1;rounded=0;sketch=0;fontColor=#E4FDE1;strokeColor=#028090;fillColor=#F45B69;" vertex="1" parent="1">
          <mxGeometry x="750" y="360" width="100" height="40" as="geometry" />
        </mxCell>
        <mxCell id="m7mVW3YWxIbqjOFGqsb5-57" value="gender" style="ellipse;whiteSpace=wrap;html=1;align=center;rounded=0;sketch=0;fontColor=#E4FDE1;strokeColor=#028090;fillColor=#F45B69;" vertex="1" parent="1">
          <mxGeometry x="827" y="400" width="100" height="40" as="geometry" />
        </mxCell>
        <mxCell id="m7mVW3YWxIbqjOFGqsb5-61" value="ID" style="ellipse;whiteSpace=wrap;html=1;align=center;fontStyle=4;rounded=0;sketch=0;fontColor=#E4FDE1;strokeColor=#028090;fillColor=#F45B69;" vertex="1" parent="1">
          <mxGeometry x="740" y="440" width="100" height="40" as="geometry" />
        </mxCell>
        <mxCell id="m7mVW3YWxIbqjOFGqsb5-63" value="salary" style="ellipse;whiteSpace=wrap;html=1;align=center;rounded=0;sketch=0;fontColor=#E4FDE1;strokeColor=#028090;fillColor=#F45B69;" vertex="1" parent="1">
          <mxGeometry x="790" y="510" width="100" height="40" as="geometry" />
        </mxCell>
        <mxCell id="m7mVW3YWxIbqjOFGqsb5-65" value="" style="fontSize=12;html=1;endArrow=ERmany;rounded=1;sketch=0;fontColor=#E4FDE1;strokeColor=#028090;fillColor=#F45B69;exitX=0.5;exitY=1;exitDx=0;exitDy=0;" edge="1" parent="1" source="m7mVW3YWxIbqjOFGqsb5-17" target="m7mVW3YWxIbqjOFGqsb5-16">
          <mxGeometry width="100" height="100" relative="1" as="geometry">
            <mxPoint x="380" y="560" as="sourcePoint" />
            <mxPoint x="480" y="460" as="targetPoint" />
          </mxGeometry>
        </mxCell>
        <mxCell id="m7mVW3YWxIbqjOFGqsb5-66" value="" style="fontSize=12;html=1;endArrow=ERmandOne;rounded=1;sketch=0;fontColor=#E4FDE1;strokeColor=#028090;fillColor=#F45B69;entryX=0.5;entryY=1;entryDx=0;entryDy=0;" edge="1" parent="1" source="m7mVW3YWxIbqjOFGqsb5-17" target="m7mVW3YWxIbqjOFGqsb5-1">
          <mxGeometry width="100" height="100" relative="1" as="geometry">
            <mxPoint x="380" y="560" as="sourcePoint" />
            <mxPoint x="480" y="460" as="targetPoint" />
          </mxGeometry>
        </mxCell>
        <mxCell id="m7mVW3YWxIbqjOFGqsb5-68" value="" style="fontSize=12;html=1;endArrow=ERmandOne;rounded=1;sketch=0;fontColor=#E4FDE1;strokeColor=#028090;fillColor=#F45B69;entryX=0;entryY=0.75;entryDx=0;entryDy=0;exitX=1;exitY=0.5;exitDx=0;exitDy=0;" edge="1" parent="1" source="m7mVW3YWxIbqjOFGqsb5-18" target="m7mVW3YWxIbqjOFGqsb5-15">
          <mxGeometry width="100" height="100" relative="1" as="geometry">
            <mxPoint x="390" y="670" as="sourcePoint" />
            <mxPoint x="490" y="570" as="targetPoint" />
          </mxGeometry>
        </mxCell>
        <mxCell id="m7mVW3YWxIbqjOFGqsb5-69" value="" style="fontSize=12;html=1;endArrow=ERmany;rounded=1;sketch=0;fontColor=#E4FDE1;strokeColor=#028090;fillColor=#F45B69;entryX=1;entryY=1;entryDx=0;entryDy=0;exitX=0;exitY=0.5;exitDx=0;exitDy=0;" edge="1" parent="1" source="m7mVW3YWxIbqjOFGqsb5-18" target="m7mVW3YWxIbqjOFGqsb5-16">
          <mxGeometry width="100" height="100" relative="1" as="geometry">
            <mxPoint x="290" y="670" as="sourcePoint" />
            <mxPoint x="390" y="570" as="targetPoint" />
          </mxGeometry>
        </mxCell>
        <mxCell id="m7mVW3YWxIbqjOFGqsb5-70" value="" style="fontSize=12;html=1;endArrow=ERmany;rounded=1;sketch=0;fontColor=#E4FDE1;strokeColor=#028090;fillColor=#F45B69;entryX=0;entryY=1;entryDx=0;entryDy=0;exitX=1;exitY=0;exitDx=0;exitDy=0;" edge="1" parent="1" source="m7mVW3YWxIbqjOFGqsb5-23" target="m7mVW3YWxIbqjOFGqsb5-14">
          <mxGeometry width="100" height="100" relative="1" as="geometry">
            <mxPoint x="350" y="640" as="sourcePoint" />
            <mxPoint x="450" y="540" as="targetPoint" />
          </mxGeometry>
        </mxCell>
        <mxCell id="m7mVW3YWxIbqjOFGqsb5-71" value="" style="fontSize=12;html=1;endArrow=ERmany;rounded=1;sketch=0;fontColor=#E4FDE1;strokeColor=#028090;fillColor=#F45B69;entryX=1;entryY=0;entryDx=0;entryDy=0;exitX=0;exitY=1;exitDx=0;exitDy=0;" edge="1" parent="1" source="m7mVW3YWxIbqjOFGqsb5-23" target="m7mVW3YWxIbqjOFGqsb5-16">
          <mxGeometry width="100" height="100" relative="1" as="geometry">
            <mxPoint x="310" y="640" as="sourcePoint" />
            <mxPoint x="410" y="540" as="targetPoint" />
          </mxGeometry>
        </mxCell>
        <mxCell id="m7mVW3YWxIbqjOFGqsb5-72" value="" style="fontSize=12;html=1;endArrow=ERmandOne;rounded=1;sketch=0;fontColor=#E4FDE1;strokeColor=#028090;fillColor=#F45B69;entryX=1;entryY=0.25;entryDx=0;entryDy=0;exitX=0;exitY=0.5;exitDx=0;exitDy=0;" edge="1" parent="1" source="m7mVW3YWxIbqjOFGqsb5-11" target="m7mVW3YWxIbqjOFGqsb5-1">
          <mxGeometry width="100" height="100" relative="1" as="geometry">
            <mxPoint x="300" y="460" as="sourcePoint" />
            <mxPoint x="400" y="360" as="targetPoint" />
          </mxGeometry>
        </mxCell>
        <mxCell id="m7mVW3YWxIbqjOFGqsb5-74" value="" style="fontSize=12;html=1;endArrow=ERmany;rounded=1;sketch=0;fontColor=#E4FDE1;strokeColor=#028090;fillColor=#F45B69;entryX=0;entryY=0.5;entryDx=0;entryDy=0;exitX=1;exitY=0.5;exitDx=0;exitDy=0;" edge="1" parent="1" source="m7mVW3YWxIbqjOFGqsb5-11" target="m7mVW3YWxIbqjOFGqsb5-14">
          <mxGeometry width="100" height="100" relative="1" as="geometry">
            <mxPoint x="450" y="430" as="sourcePoint" />
            <mxPoint x="550" y="330" as="targetPoint" />
          </mxGeometry>
        </mxCell>
        <mxCell id="m7mVW3YWxIbqjOFGqsb5-75" value="" style="fontSize=12;html=1;endArrow=ERmandOne;rounded=1;sketch=0;fontColor=#E4FDE1;strokeColor=#028090;fillColor=#F45B69;entryX=1;entryY=1;entryDx=0;entryDy=0;" edge="1" parent="1" source="m7mVW3YWxIbqjOFGqsb5-24" target="m7mVW3YWxIbqjOFGqsb5-1">
          <mxGeometry width="100" height="100" relative="1" as="geometry">
            <mxPoint x="350" y="650" as="sourcePoint" />
            <mxPoint x="450" y="550" as="targetPoint" />
          </mxGeometry>
        </mxCell>
        <mxCell id="m7mVW3YWxIbqjOFGqsb5-76" value="" style="fontSize=12;html=1;endArrow=ERmany;rounded=1;sketch=0;fontColor=#E4FDE1;strokeColor=#028090;fillColor=#F45B69;entryX=0;entryY=0.25;entryDx=0;entryDy=0;exitX=1;exitY=1;exitDx=0;exitDy=0;" edge="1" parent="1" source="m7mVW3YWxIbqjOFGqsb5-24" target="m7mVW3YWxIbqjOFGqsb5-15">
          <mxGeometry width="100" height="100" relative="1" as="geometry">
            <mxPoint x="370" y="660" as="sourcePoint" />
            <mxPoint x="470" y="560" as="targetPoint" />
          </mxGeometry>
        </mxCell>
        <mxCell id="m7mVW3YWxIbqjOFGqsb5-77" value="" style="fontSize=12;html=1;endArrow=ERmandOne;rounded=1;sketch=0;fontColor=#E4FDE1;strokeColor=#028090;fillColor=#F45B69;entryX=0.5;entryY=0;entryDx=0;entryDy=0;exitX=0.5;exitY=1;exitDx=0;exitDy=0;" edge="1" parent="1" source="m7mVW3YWxIbqjOFGqsb5-22" target="m7mVW3YWxIbqjOFGqsb5-14">
          <mxGeometry width="100" height="100" relative="1" as="geometry">
            <mxPoint x="430" y="390" as="sourcePoint" />
            <mxPoint x="530" y="290" as="targetPoint" />
          </mxGeometry>
        </mxCell>
        <mxCell id="m7mVW3YWxIbqjOFGqsb5-78" value="" style="fontSize=12;html=1;endArrow=ERmany;rounded=1;sketch=0;fontColor=#E4FDE1;strokeColor=#028090;fillColor=#F45B69;entryX=0.5;entryY=1;entryDx=0;entryDy=0;" edge="1" parent="1" target="m7mVW3YWxIbqjOFGqsb5-21">
          <mxGeometry width="100" height="100" relative="1" as="geometry">
            <mxPoint x="570" y="260" as="sourcePoint" />
            <mxPoint x="540" y="290" as="targetPoint" />
          </mxGeometry>
        </mxCell>
        <mxCell id="m7mVW3YWxIbqjOFGqsb5-79" value="" style="fontSize=12;html=1;endArrow=ERmandOne;rounded=1;sketch=0;fontColor=#E4FDE1;strokeColor=#028090;fillColor=#F45B69;entryX=0.75;entryY=0;entryDx=0;entryDy=0;exitX=0.5;exitY=1;exitDx=0;exitDy=0;" edge="1" parent="1" source="m7mVW3YWxIbqjOFGqsb5-19" target="m7mVW3YWxIbqjOFGqsb5-15">
          <mxGeometry width="100" height="100" relative="1" as="geometry">
            <mxPoint x="620" y="640" as="sourcePoint" />
            <mxPoint x="720" y="540" as="targetPoint" />
          </mxGeometry>
        </mxCell>
        <mxCell id="m7mVW3YWxIbqjOFGqsb5-80" value="" style="fontSize=12;html=1;endArrow=ERmany;rounded=1;sketch=0;fontColor=#E4FDE1;strokeColor=#028090;fillColor=#F45B69;entryX=0.25;entryY=0;entryDx=0;entryDy=0;exitX=0.5;exitY=1;exitDx=0;exitDy=0;" edge="1" parent="1" source="m7mVW3YWxIbqjOFGqsb5-20" target="m7mVW3YWxIbqjOFGqsb5-15">
          <mxGeometry width="100" height="100" relative="1" as="geometry">
            <mxPoint x="690" y="640" as="sourcePoint" />
            <mxPoint x="790" y="540" as="targetPoint" />
          </mxGeometry>
        </mxCell>
        <mxCell id="m7mVW3YWxIbqjOFGqsb5-81" value="" style="fontSize=12;html=1;endArrow=ERmany;rounded=1;sketch=0;fontColor=#E4FDE1;strokeColor=#028090;fillColor=#F45B69;exitX=0.5;exitY=0;exitDx=0;exitDy=0;entryX=0.5;entryY=1;entryDx=0;entryDy=0;" edge="1" parent="1" source="m7mVW3YWxIbqjOFGqsb5-19" target="m7mVW3YWxIbqjOFGqsb5-14">
          <mxGeometry width="100" height="100" relative="1" as="geometry">
            <mxPoint x="560" y="550" as="sourcePoint" />
            <mxPoint x="660" y="450" as="targetPoint" />
          </mxGeometry>
        </mxCell>
        <mxCell id="m7mVW3YWxIbqjOFGqsb5-82" style="edgeStyle=none;rounded=1;sketch=0;orthogonalLoop=1;jettySize=auto;html=1;entryX=0.5;entryY=0;entryDx=0;entryDy=0;fontColor=#E4FDE1;strokeColor=#028090;fillColor=#F45B69;" edge="1" parent="1" source="m7mVW3YWxIbqjOFGqsb5-19" target="m7mVW3YWxIbqjOFGqsb5-19">
          <mxGeometry relative="1" as="geometry" />
        </mxCell>
        <mxCell id="m7mVW3YWxIbqjOFGqsb5-83" value="" style="fontSize=12;html=1;endArrow=ERmandOne;rounded=1;sketch=0;fontColor=#E4FDE1;strokeColor=#028090;fillColor=#F45B69;entryX=0.25;entryY=1;entryDx=0;entryDy=0;exitX=0.5;exitY=0;exitDx=0;exitDy=0;" edge="1" parent="1" source="m7mVW3YWxIbqjOFGqsb5-20" target="m7mVW3YWxIbqjOFGqsb5-14">
          <mxGeometry width="100" height="100" relative="1" as="geometry">
            <mxPoint x="540" y="550" as="sourcePoint" />
            <mxPoint x="640" y="450" as="targetPoint" />
          </mxGeometry>
        </mxCell>
      </root>
    </mxGraphModel>
  </diagram>
</mxfile>
